# xmcd CD database file
#
# Track frame offsets:
#	150
#	19356
#	29685
#	46659
#	59823
#	70348
#	87026
#	104266
#	119445
#	131378
#	142565
#	155397
#	167094
#	178599
#	190663
#	204823
#	218412
#	231518
#	243001
#	258714
#
# Disc length: 3634 seconds
#
# Revision: 0
# Processed by: cddbd v1.5.2PL0 Copyright (c) Steve Scherf et al.
# Submitted via: CDex 1.51
#
DISCID=0f0e3014
DTITLE=鳳飛飛 - 鐳射唱片珍藏系列 Vol.5
DYEAR=1900
DGENRE=Blues
TTITLE0=另一種鄉愁
TTITLE1=溜溜的她
TTITLE2=遠去的人(破碎的心)
TTITLE3=跳呀！
TTITLE4=如果你是我
TTITLE5=交會的雲朵
TTITLE6=早春
TTITLE7=吹過來的愛
TTITLE8=敲敲門
TTITLE9=踢踏踩(電影"早晨再見"插曲)
TTITLE10=我倆有春天(電影"落葉飄飄"插曲)
TTITLE11=甜甜的夢(電影"落葉飄飄"插曲)
TTITLE12=明年春天在台北(電影"台北七十七"插曲)
TTITLE13=清清河水慢慢流
TTITLE14=娃娃谷(電影"娃娃穀"插曲)
TTITLE15=櫓兒搖
TTITLE16=夜的羅曼史
TTITLE17=山鷹
TTITLE18=飄零的落花
TTITLE19=漁光曲
EXTD=
EXTT0=
EXTT1=
EXTT2=
EXTT3=
EXTT4=
EXTT5=
EXTT6=
EXTT7=
EXTT8=
EXTT9=
EXTT10=
EXTT11=
EXTT12=
EXTT13=
EXTT14=
EXTT15=
EXTT16=
EXTT17=
EXTT18=
EXTT19=
PLAYORDER=
